<?xml version="1.0" encoding="UTF-8"?>
<svg version="1.1" xmlns="http://www.w3.org/2000/svg" width="456" height="456">
	<g transform="translate(0,100)">
		<path d="M0 0 C1.01037827 0.00222061 2.02075653 0.00444122 3.06175232 0.00672913 C4.77341331 0.00684242 4.77341331 0.00684242 6.51965332 0.00695801 C7.76129745 0.01211929 9.00294159 0.01728058 10.2822113 0.02259827 C12.17785072 0.02472069 12.17785072 0.02472069 14.11178589 0.02688599 C17.47705394 0.0315487 20.84225495 0.04053972 24.20750427 0.05158997 C27.63930175 0.06180606 31.07110614 0.06638403 34.50291443 0.07142639 C41.2405633 0.08248071 47.9781803 0.09923742 54.71580505 0.12025452 C61.11736657 12.71384048 61.11736657 12.71384048 63.3212738 18.46791077 C63.74150818 19.55338196 64.16174255 20.63885315 64.5947113 21.75721741 C65.24246521 23.45285828 65.24246521 23.45285828 65.90330505 25.18275452 C66.86411759 27.66248893 67.82614191 30.14171537 68.7900238 32.62025452 C69.0328006 33.24589798 69.27557739 33.87154144 69.52571106 34.5161438 C72.0205636 40.93311515 74.6090357 47.31059977 77.21580505 53.68275452 C77.66552673 54.78272766 78.11524841 55.88270081 78.57859802 57.01600647 C79.49149954 59.24709084 80.40491229 61.4779661 81.3188324 63.70863342 C83.72842101 69.59321771 86.12849781 75.48167591 88.52830505 81.37025452 C88.99567078 82.51647278 89.4630365 83.66269104 89.94456482 84.84364319 C92.20246969 90.38584718 94.44631134 95.93259785 96.65330505 101.49525452 C99.72201585 109.16440779 102.87150403 116.79954113 106.02830505 124.43275452 C106.3014151 125.09370117 106.57452515 125.75464783 106.85591125 126.43562317 C107.6377379 128.32696743 108.42069113 130.21784073 109.2040863 132.10853577 C109.66339539 133.21753235 110.12270447 134.32652893 110.59593201 135.46913147 C111.25892384 137.0386602 111.95383674 138.59631788 112.71580505 140.12025452 C112.96225769 139.48635803 113.20871033 138.85246155 113.46263123 138.19935608 C121.74168016 116.92306976 121.74168016 116.92306976 125.60643005 107.80384827 C126.87145336 104.74373906 128.04484277 101.65502204 129.21580505 98.55775452 C130.69441761 94.6712466 132.25258442 90.87955605 134.02830505 87.12025452 C138.11902293 78.34881138 141.33049873 69.18096444 144.71580505 60.12025452 C145.37580505 60.12025452 146.03580505 60.12025452 146.71580505 60.12025452 C146.8365741 59.25311829 146.95734314 58.38598206 147.08177185 57.49256897 C147.70658753 54.16928096 148.63878237 51.31127853 149.8603363 48.16322327 C150.50518982 46.49356506 150.50518982 46.49356506 151.16307068 44.79017639 C151.61359802 43.64097717 152.06412537 42.49177795 152.52830505 41.30775452 C152.96723083 40.17015686 153.40615662 39.0325592 153.85838318 37.86048889 C156.03612951 32.25271118 158.29238436 26.7061267 160.77561951 21.22694397 C162.74851151 16.80625193 164.52352495 12.30033854 166.33494568 7.81166077 C168.61001323 2.22604634 168.61001323 2.22604634 169.71580505 1.12025452 C189.18580505 1.12025452 208.65580505 1.12025452 228.71580505 1.12025452 C228.71580505 70.42025452 228.71580505 139.72025452 228.71580505 211.12025452 C210.89580505 211.12025452 193.07580505 211.12025452 174.71580505 211.12025452 C174.38580505 180.10025452 174.05580505 149.08025452 173.71580505 117.12025452 C169.75580505 128.34025452 165.79580505 139.56025452 161.71580505 151.12025452 C155.84080505 167.68275452 155.84080505 167.68275452 153.12205505 175.33119202 C151.69375347 179.3532804 150.27325594 183.37770862 148.87205505 187.40931702 C148.60634705 188.17171692 148.34063904 188.93411682 148.06687927 189.71961975 C147.41819328 191.58519181 146.7737427 193.45223535 146.12986755 195.31947327 C144.14777233 200.64703861 141.90208739 205.8731769 139.71580505 211.12025452 C121.56580505 211.12025452 103.41580505 211.12025452 84.71580505 211.12025452 C81.39089659 203.14047419 78.46631432 195.55366674 76.04393005 187.34291077 C74.70497078 182.93178381 73.16036964 178.71107561 71.3447113 174.47181702 C68.3596596 167.45119 66.00322565 160.24545339 63.65330505 152.99525452 C60.00241481 141.7135011 60.00241481 141.7135011 55.71018982 130.66371155 C54.77865474 128.28101268 53.95790336 125.88940178 53.15365601 123.46128845 C52.74945891 122.24274579 52.74945891 122.24274579 52.33709621 120.99958611 C52.13207013 120.37940668 51.92704405 119.75922726 51.71580505 119.12025452 C51.70549759 120.25808884 51.69519012 121.39592316 51.68457031 122.5682373 C51.58701368 133.26661863 51.48429691 143.96493947 51.3764658 154.66322231 C51.32119006 160.16393419 51.26776277 165.66465134 51.2184906 171.16542053 C51.17091547 176.46926734 51.11857542 181.77304728 51.0628643 187.07681465 C51.0424096 189.10509143 51.02370179 191.13338656 51.00673103 193.16169548 C50.98275573 195.99226935 50.95269218 198.82271557 50.92112732 201.6532135 C50.91537186 202.50053543 50.90961639 203.34785736 50.90368652 204.22085571 C50.82985721 210.00620236 50.82985721 210.00620236 49.71580505 211.12025452 C48.06389109 211.21893961 46.40777288 211.24824288 44.75291443 211.24964905 C43.6951178 211.25280121 42.63732117 211.25595337 41.54747009 211.25920105 C40.39645813 211.25717682 39.24544617 211.25515259 38.05955505 211.25306702 C36.30064941 211.25450211 36.30064941 211.25450211 34.50621033 211.25596619 C32.02122443 211.25664822 29.53623677 211.25479236 27.05125427 211.25062561 C23.23236618 211.24527771 19.41359571 211.25056987 15.5947113 211.25697327 C13.18715896 211.25631249 10.77960669 211.25503134 8.37205505 211.25306702 C6.64553711 211.25610336 6.64553711 211.25610336 4.88414001 211.25920105 C3.82634338 211.25604889 2.76854675 211.25289673 1.67869568 211.24964905 C0.27424194 211.24845566 0.27424194 211.24845566 -1.15858459 211.24723816 C-3.28419495 211.12025452 -3.28419495 211.12025452 -4.28419495 210.12025452 C-4.37185105 207.42888207 -4.39356489 204.76366565 -4.37321472 202.07228088 C-4.37069116 201.21866958 -4.3681676 200.36505828 -4.36556756 199.48557997 C-4.35578428 196.60269675 -4.33875853 193.71990066 -4.3217926 190.83705139 C-4.31329228 188.77944098 -4.30522009 186.72182875 -4.29754639 184.66421509 C-4.27528395 179.05898533 -4.24662514 173.45380469 -4.21659136 167.84861183 C-4.18602169 161.99674975 -4.16034174 156.1448659 -4.13389587 150.29298401 C-4.08865282 140.46374016 -4.03916717 130.63452419 -3.98731995 120.80531311 C-3.92734684 109.423573 -3.87457554 98.0418163 -3.82555163 86.66002417 C-3.78335794 76.90718379 -3.73730305 67.15436728 -3.68798673 57.40156031 C-3.65849262 51.56816952 -3.63035887 45.73478054 -3.60568619 39.90136719 C-3.58227938 34.41853828 -3.55404329 28.93575552 -3.52199745 23.4529705 C-3.51100245 21.43447668 -3.50172277 19.41597272 -3.49423409 17.39746284 C-3.48378426 14.65433608 -3.46727802 11.91131324 -3.44914246 9.16822815 C-3.44748223 8.35861492 -3.445822 7.54900168 -3.44411147 6.71485472 C-3.38952691 0.1784462 -3.38952691 0.1784462 0 0 Z " fill="#FEFEFE" transform="translate(182.28419494628906,18.879745483398438)"/>
		<path d="M0 0 C1.44034928 1.05164134 2.85664458 2.13684402 4.25 3.25 C5.04792969 3.88550781 5.84585938 4.52101563 6.66796875 5.17578125 C22.5759342 18.66672249 32.80836358 36.74358302 36.25 57.25 C36.25 67.48 36.25 77.71 36.25 88.25 C7.21 88.25 -21.83 88.25 -51.75 88.25 C-46.26083598 98.31346737 -41.88115601 105.38008255 -31.29296875 109.58984375 C-22.11798047 111.97167635 -13.10469294 110.50518523 -4.75 106.25 C-1.08236915 103.90079854 2.17232067 101.32767933 5.25 98.25 C7.48901367 97.78051758 7.48901367 97.78051758 10.25 98.25 C12.51930081 100.02234625 14.42444863 101.72307658 16.42578125 103.76171875 C16.99580368 104.32695755 17.56582611 104.89219635 18.15312195 105.4745636 C19.35343659 106.67147987 20.54747633 107.87471742 21.7355957 109.08374023 C23.55623601 110.93114393 25.40198615 112.75037746 27.25195312 114.56835938 C28.41566903 115.73537939 29.57783292 116.90394951 30.73828125 118.07421875 C31.29131424 118.61713058 31.84434723 119.16004242 32.41413879 119.71940613 C34.71927274 122.0965676 36.15426421 123.68234782 36.71313477 126.99609375 C36.04196776 130.26241623 34.39856117 131.44891801 31.875 133.5625 C31.06289062 134.25988281 30.25078125 134.95726562 29.4140625 135.67578125 C27.25 137.25 27.25 137.25 25.25 137.25 C25.25 137.91 25.25 138.57 25.25 139.25 C6.79455403 153.86370008 -15.03152547 156.90027124 -37.75 155.25 C-49.67493903 153.72539667 -61.48654322 147.9110114 -69.75 139.25 C-70.513125 138.693125 -71.27625 138.13625 -72.0625 137.5625 C-72.619375 137.129375 -73.17625 136.69625 -73.75 136.25 C-73.75 135.59 -73.75 134.93 -73.75 134.25 C-74.33007812 134.04117188 -74.91015625 133.83234375 -75.5078125 133.6171875 C-84.94272479 127.8641922 -91.62774171 109.00064605 -94.20703125 98.91796875 C-95.74904152 91.34104061 -95.96822834 83.95486987 -95.99023438 76.24633789 C-95.9998623 74.21652997 -96.03091523 72.1877711 -96.0625 70.15820312 C-96.17304711 56.56214934 -93.59083366 44.51910749 -87.75 32.25 C-87.34265625 31.35925781 -86.9353125 30.46851563 -86.515625 29.55078125 C-78.71835734 13.84158023 -65.16200093 0.65589446 -48.75 -5.75 C-32.34867591 -10.73557972 -14.58279584 -9.04790453 0 0 Z M-39.75 42.25 C-40.74 42.95125 -41.73 43.6525 -42.75 44.375 C-46.81732755 47.80748012 -49.39719523 52.53604718 -51.75 57.25 C-51.75 57.91 -51.75 58.57 -51.75 59.25 C-32.94 59.25 -14.13 59.25 5.25 59.25 C1.91207356 49.23622067 -3.9024147 42.84498228 -13.25 37.9375 C-22.85507698 35.29610383 -31.75136772 35.88745159 -39.75 42.25 Z " fill="#FEFEFE" transform="translate(124.75,76.75)"/>
	</g>
</svg>
